<?xml version="1.0" encoding="UTF-8" standalone="no"?>
<!-- Created with Inkscape (http://www.inkscape.org/) -->

<svg
   xmlns:dc="http://purl.org/dc/elements/1.1/"
   xmlns:cc="http://creativecommons.org/ns#"
   xmlns:rdf="http://www.w3.org/1999/02/22-rdf-syntax-ns#"
   xmlns:svg="http://www.w3.org/2000/svg"
   xmlns="http://www.w3.org/2000/svg"
   xmlns:sodipodi="http://sodipodi.sourceforge.net/DTD/sodipodi-0.dtd"
   xmlns:inkscape="http://www.inkscape.org/namespaces/inkscape"
   width="50"
   height="50"
   viewBox="0 0 50.000002 49.999999"
   id="svg4729"
   version="1.1"
   inkscape:version="0.91 r13725"
   sodipodi:docname="english.svg">
  <defs
     id="defs4731" />
  <sodipodi:namedview
     id="base"
     pagecolor="#ffffff"
     bordercolor="#666666"
     borderopacity="1.0"
     inkscape:pageopacity="0.0"
     inkscape:pageshadow="2"
     inkscape:zoom="15.839192"
     inkscape:cx="12.844812"
     inkscape:cy="23.071345"
     inkscape:document-units="px"
     inkscape:current-layer="layer1"
     showgrid="true"
     units="px"
     inkscape:window-width="1536"
     inkscape:window-height="801"
     inkscape:window-x="-8"
     inkscape:window-y="-8"
     inkscape:window-maximized="1">
    <inkscape:grid
       type="xygrid"
       id="grid5277" />
  </sodipodi:namedview>
  <metadata
     id="metadata4734">
    <rdf:RDF>
      <cc:Work
         rdf:about="">
        <dc:format>image/svg+xml</dc:format>
        <dc:type
           rdf:resource="http://purl.org/dc/dcmitype/StillImage" />
        <dc:title></dc:title>
      </cc:Work>
    </rdf:RDF>
  </metadata>
  <g
     inkscape:label="Ebene 1"
     inkscape:groupmode="layer"
     id="layer1"
     transform="translate(0,-1002.3622)">
    <g
       transform="matrix(20.000001,0,0,20.000001,0.05076263,1002.4129)"
       id="g4144"
       inkscape:export-xdpi="90"
       inkscape:export-ydpi="90">
      <path
         inkscape:connector-curvature="0"
         transform="scale(0.05,0.05)"
         id="path7"
         d="m -5.3808594,-5.3183594 0,60.7011714 60.7929684,0 0,-60.7011714 -60.7929684,0 z M -5.0078125,-5 l 60.0000005,0 0,60 -60.0000005,0 0,-60 z M 24.992188,0 a 25,25 0 0 0 -25.0000005,25 25,25 0 0 0 25.0000005,25 25,25 0 0 0 25,-25 25,25 0 0 0 -25,-25 z"
         style="fill:#00247d" />
      <path
         inkscape:connector-curvature="0"
         transform="scale(0.05,0.05)"
         id="path9"
         d="M 56.523438,-11.757812 49.757812,-5 55,-5 55,0.4609375 61.875,-6.40625 56.523438,-11.757812 Z M -6.2890625,-11.640625 -11.640625,-6.2890625 -5,0.3671875 -5,-5 l 5.3359375,0 -6.625,-6.640625 z M 10.197266,4.8886719 A 25,25 0 0 0 4.8535156,10.246094 L 19.648438,25.078125 4.8964844,39.8125 a 25,25 0 0 0 5.3691406,5.351562 L 25,30.429688 39.720703,45.169922 a 25,25 0 0 0 5.367188,-5.337891 L 30.351562,25.078125 45.169922,10.279297 A 25,25 0 0 0 39.832031,4.9121094 L 25,19.726562 10.197266,4.8886719 Z M -5,49.695312 -11.796875,56.484375 -6.4453125,61.875 0.4296875,55 -5,55 -5,49.695312 Z m 60,0.0625 L 55,55 49.539062,55 56.523438,61.992188 61.875,56.640625 55,49.757812 Z"
         style="color:#000000;font-style:normal;font-variant:normal;font-weight:normal;font-stretch:normal;font-size:medium;line-height:normal;font-family:sans-serif;text-indent:0;text-align:start;text-decoration:none;text-decoration-line:none;text-decoration-style:solid;text-decoration-color:#000000;letter-spacing:normal;word-spacing:normal;text-transform:none;direction:ltr;block-progression:tb;writing-mode:lr-tb;baseline-shift:baseline;text-anchor:start;white-space:normal;clip-rule:nonzero;display:inline;overflow:visible;visibility:visible;opacity:1;isolation:auto;mix-blend-mode:normal;color-interpolation:sRGB;color-interpolation-filters:linearRGB;solid-color:#000000;solid-opacity:1;fill:#ffffff;fill-opacity:1;fill-rule:nonzero;stroke:none;stroke-width:0.37880298;stroke-linecap:butt;stroke-linejoin:miter;stroke-miterlimit:4;stroke-dasharray:none;stroke-dashoffset:0;stroke-opacity:1;color-rendering:auto;image-rendering:auto;shape-rendering:auto;text-rendering:auto;enable-background:accumulate" />
      <path
         inkscape:connector-curvature="0"
         transform="scale(0.05,0.05)"
         id="path4355"
         d="m 52.638672,-7.2597656 -2.240234,2.2695312 4.537109,0 -2.296875,-2.2695312 z m -58.0312501,1.8535156 -2.3359375,2.3320312 2.7207031,2.7226563 0,-4.6386719 0.03125,0 L -5.3925781,-5.40625 Z M 40.275391,5.2636719 25.039062,20.695312 23.291016,18.96875 21.138672,21.146484 7.3359375,7.3320312 a 25,25 0 0 0 -2.1699219,2.5 L 20.556641,25.236328 20.427734,25.365234 22.535156,27.445312 7.3476562,42.699219 a 25,25 0 0 0 2.5019532,2.164062 L 27.181641,27.453125 42.623047,42.712891 A 25,25 0 0 0 44.794922,40.21875 L 29.509766,25.115234 30.857422,23.761719 28.734375,21.648438 42.763672,7.4394531 A 25,25 0 0 0 40.275391,5.2636719 Z m 14.716797,45.0312501 0,4.638672 0.90039,0.890625 2.320313,-2.347657 -3.220703,-3.18164 z m -59.9003911,4.714844 -0.5488281,0.550781 2.3398437,2.328125 2.86523438,-2.878906 -4.65624998,0 z"
         style="color:#000000;font-style:normal;font-variant:normal;font-weight:normal;font-stretch:normal;font-size:medium;line-height:normal;font-family:sans-serif;text-indent:0;text-align:start;text-decoration:none;text-decoration-line:none;text-decoration-style:solid;text-decoration-color:#000000;letter-spacing:normal;word-spacing:normal;text-transform:none;direction:ltr;block-progression:tb;writing-mode:lr-tb;baseline-shift:baseline;text-anchor:start;white-space:normal;clip-rule:nonzero;display:inline;overflow:visible;visibility:visible;opacity:1;isolation:auto;mix-blend-mode:normal;color-interpolation:sRGB;color-interpolation-filters:linearRGB;solid-color:#000000;solid-opacity:1;fill:#cf142b;fill-opacity:1;fill-rule:evenodd;stroke:none;stroke-width:3.29999995;stroke-linecap:butt;stroke-linejoin:miter;stroke-miterlimit:4;stroke-dasharray:none;stroke-dashoffset:0;stroke-opacity:1;color-rendering:auto;image-rendering:auto;shape-rendering:auto;text-rendering:auto;enable-background:accumulate" />
      <path
         inkscape:connector-curvature="0"
         transform="scale(0.05,0.05)"
         id="path13"
         d="m 31.25,-5.46875 -12.617188,0.039063 0,0.4355469 12.617188,0 0,-0.4746094 z m -6.253906,5.47460938 a 25,25 0 0 0 -6.363282,0.83984374 l 0,17.90429688 -17.80859325,0 a 25,25 0 0 0 -0.828125,6.255859 25,25 0 0 0 0.83984375,6.361329 l 17.8359375,0 0,17.794921 a 25,25 0 0 0 6.324219,0.84375 25,25 0 0 0 6.292968,-0.822265 l 0,-17.777344 17.84375,0 a 25,25 0 0 0 0.863282,-6.400391 25,25 0 0 0 -0.804688,-6.216797 l -17.941406,0 0,-17.95507762 a 25,25 0 0 0 -6.253906,-0.828125 z M -5.3515625,18.75 l 0,12.617188 0.3476563,0 0,-12.617188 -0.3476563,0 z m 60.3476565,0.03906 0,12.617188 0.472656,0 0,-12.617188 -0.472656,0 z m -36.324219,36.216797 0,0.501953 12.617187,-0.03906 0,-0.462891 -12.617187,0 z"
         style="color:#000000;font-style:normal;font-variant:normal;font-weight:normal;font-stretch:normal;font-size:medium;line-height:normal;font-family:sans-serif;text-indent:0;text-align:start;text-decoration:none;text-decoration-line:none;text-decoration-style:solid;text-decoration-color:#000000;letter-spacing:normal;word-spacing:normal;text-transform:none;direction:ltr;block-progression:tb;writing-mode:lr-tb;baseline-shift:baseline;text-anchor:start;white-space:normal;clip-rule:nonzero;display:inline;overflow:visible;visibility:visible;opacity:1;isolation:auto;mix-blend-mode:normal;color-interpolation:sRGB;color-interpolation-filters:linearRGB;solid-color:#000000;solid-opacity:1;fill:#ffffff;fill-opacity:1;fill-rule:nonzero;stroke:none;stroke-width:0.6313383;stroke-linecap:butt;stroke-linejoin:miter;stroke-miterlimit:4;stroke-dasharray:none;stroke-dashoffset:0;stroke-opacity:1;color-rendering:auto;image-rendering:auto;shape-rendering:auto;text-rendering:auto;enable-background:accumulate" />
      <path
         inkscape:connector-curvature="0"
         transform="scale(0.05,0.05)"
         id="path15"
         d="m 21.210938,-5.3515625 0,0.3515625 7.578124,0 0,-0.3515625 -7.578124,0 z M 25,0 a 25,25 0 0 0 -3.789062,0.30664062 l 0,20.94335938 -20.89648488,0 A 25,25 0 0 0 0,25 25,25 0 0 0 0.3125,28.828125 l 20.898438,0 0,20.851563 A 25,25 0 0 0 25,50 25,25 0 0 0 28.789062,49.693359 l 0,-20.904297 20.890626,0 A 25,25 0 0 0 50,25 25,25 0 0 0 49.693359,21.210938 l -20.904297,0 0,-20.8906255 A 25,25 0 0 0 25,0 Z m 30,21.210938 0,7.578124 0.351562,0 0,-7.578124 -0.351562,0 z M -5.4296875,21.25 l 0,7.578125 0.4296875,0 0,-7.578125 -0.4296875,0 z M 21.210938,55 l 0,0.46875 7.578124,0 0,-0.46875 -7.578124,0 z"
         style="color:#000000;font-style:normal;font-variant:normal;font-weight:normal;font-stretch:normal;font-size:medium;line-height:normal;font-family:sans-serif;text-indent:0;text-align:start;text-decoration:none;text-decoration-line:none;text-decoration-style:solid;text-decoration-color:#000000;letter-spacing:normal;word-spacing:normal;text-transform:none;direction:ltr;block-progression:tb;writing-mode:lr-tb;baseline-shift:baseline;text-anchor:start;white-space:normal;clip-rule:nonzero;display:inline;overflow:visible;visibility:visible;opacity:1;isolation:auto;mix-blend-mode:normal;color-interpolation:sRGB;color-interpolation-filters:linearRGB;solid-color:#000000;solid-opacity:1;fill:#cf142b;fill-opacity:1;fill-rule:nonzero;stroke:none;stroke-width:0.37880298;stroke-linecap:butt;stroke-linejoin:miter;stroke-miterlimit:4;stroke-dasharray:none;stroke-dashoffset:0;stroke-opacity:1;color-rendering:auto;image-rendering:auto;shape-rendering:auto;text-rendering:auto;enable-background:accumulate" />
    </g>
  </g>
</svg>
