<?xml version="1.0" encoding="UTF-8" standalone="no"?>
<svg
   xmlns:dc="http://purl.org/dc/elements/1.1/"
   xmlns:cc="http://creativecommons.org/ns#"
   xmlns:rdf="http://www.w3.org/1999/02/22-rdf-syntax-ns#"
   xmlns:svg="http://www.w3.org/2000/svg"
   xmlns="http://www.w3.org/2000/svg"
   xmlns:sodipodi="http://sodipodi.sourceforge.net/DTD/sodipodi-0.dtd"
   xmlns:inkscape="http://www.inkscape.org/namespaces/inkscape"
   width="50"
   height="50"
   viewBox="0 0 0.25 0.25"
   id="svg2"
   version="1.1"
   inkscape:version="0.92.3 (2405546, 2018-03-11)"
   sodipodi:docname="german.svg">
  <metadata
     id="metadata13">
    <rdf:RDF>
      <cc:Work
         rdf:about="">
        <dc:format>image/svg+xml</dc:format>
        <dc:type
           rdf:resource="http://purl.org/dc/dcmitype/StillImage" />
        <dc:title />
      </cc:Work>
    </rdf:RDF>
  </metadata>
  <defs
     id="defs11" />
  <sodipodi:namedview
     pagecolor="#ffffff"
     bordercolor="#666666"
     borderopacity="1"
     objecttolerance="10"
     gridtolerance="10"
     guidetolerance="10"
     inkscape:pageopacity="0"
     inkscape:pageshadow="2"
     inkscape:window-width="1920"
     inkscape:window-height="1017"
     id="namedview9"
     showgrid="true"
     inkscape:zoom="7.9195959"
     inkscape:cx="30.557752"
     inkscape:cy="15.231057"
     inkscape:window-x="-8"
     inkscape:window-y="-8"
     inkscape:window-maximized="1"
     inkscape:current-layer="svg2">
    <inkscape:grid
       type="xygrid"
       id="grid4141" />
  </sodipodi:namedview>
  <desc
     id="desc4">Flag of Germany</desc>
  <g
     id="g33">
    <path
       id="black_stripe"
       transform="scale(0.005,0.005)"
       d="M -16.232422 -0.05078125 L -16.232422 49.955078 L -5 49.955078 L -5 -0.05078125 L -16.232422 -0.05078125 z M 55 -0.05078125 L 55 49.955078 L 67.113281 49.955078 L 67.113281 -0.05078125 L 55 -0.05078125 z M 25 0 A 25 25 0 0 0 0 25 A 25 25 0 0 0 24.103516 49.955078 L 26.269531 49.955078 A 25 25 0 0 0 50 25 A 25 25 0 0 0 25 0 z "
       style="fill:#000000" />
    <path
       id="red_stripe"
       transform="scale(0.005,0.005)"
       d="M -16.232422 16.617188 L -16.232422 49.955078 L -5.0175781 49.955078 L -5.0175781 16.617188 L -16.232422 16.617188 z M 1.453125 16.617188 A 25 25 0 0 0 -0.017578125 24.978516 A 25 25 0 0 0 24.513672 49.955078 L 25.644531 49.955078 A 25 25 0 0 0 49.982422 24.978516 A 25 25 0 0 0 48.515625 16.617188 L 1.453125 16.617188 z M 54.982422 16.617188 L 54.982422 49.955078 L 67.113281 49.955078 L 67.113281 16.617188 L 54.982422 16.617188 z "
       style="fill:#dd0000" />
    <path
       id="gold_stripe"
       transform="scale(0.005,0.005)"
       d="M -16.232422 33.287109 L -16.232422 49.955078 L -5.0175781 49.955078 L -5.0175781 33.287109 L -16.232422 33.287109 z M 1.421875 33.287109 A 25 25 0 0 0 23.890625 49.955078 L 26.529297 49.955078 A 25 25 0 0 0 48.539062 33.287109 L 1.421875 33.287109 z M 54.982422 33.287109 L 54.982422 49.955078 L 67.113281 49.955078 L 67.113281 33.287109 L 54.982422 33.287109 z "
       style="fill:#ffce00" />
    <rect
       style="fill:#ffffff;stroke-width:0.005"
       y="-0.010114282"
       x="-0.1"
       height="0.26895311"
       width="0.086110398"
       id="rect11" />
    <rect
       style="fill:#ffffff;stroke-width:0.005"
       y="-0.0069575547"
       x="0.26388961"
       height="0.26895311"
       width="0.086110398"
       id="rect11-3" />
  </g>
</svg>
