<?xml version="1.0" encoding="UTF-8" standalone="no"?>
<!-- Created with Inkscape (http://www.inkscape.org/) -->

<svg
   xmlns:dc="http://purl.org/dc/elements/1.1/"
   xmlns:cc="http://creativecommons.org/ns#"
   xmlns:rdf="http://www.w3.org/1999/02/22-rdf-syntax-ns#"
   xmlns:svg="http://www.w3.org/2000/svg"
   xmlns="http://www.w3.org/2000/svg"
   xmlns:xlink="http://www.w3.org/1999/xlink"
   xmlns:sodipodi="http://sodipodi.sourceforge.net/DTD/sodipodi-0.dtd"
   xmlns:inkscape="http://www.inkscape.org/namespaces/inkscape"
   width="500"
   height="500"
   viewBox="0 0 499.99998 499.99998"
   id="svg2"
   version="1.1"
   inkscape:version="0.92.3 (2405546, 2018-03-11)"
   sodipodi:docname="logo.svg"
   inkscape:export-filename="C:\Users\Christopher\Dropbox\TUT\Software\RecordWindow\Icons\logo.png"
   inkscape:export-xdpi="90"
   inkscape:export-ydpi="90">
  <defs
     id="defs4">
    <linearGradient
       inkscape:collect="always"
       id="linearGradient4143">
      <stop
         style="stop-color:#0044aa;stop-opacity:1;"
         offset="0"
         id="stop4145" />
      <stop
         style="stop-color:#0044aa;stop-opacity:0;"
         offset="1"
         id="stop4147" />
    </linearGradient>
    <linearGradient
       inkscape:collect="always"
       xlink:href="#linearGradient4143"
       id="linearGradient4149"
       x1="-9.4196415"
       y1="1061.9602"
       x2="400.58032"
       y2="651.96027"
       gradientUnits="userSpaceOnUse"
       gradientTransform="translate(-0.58035707,0.40178567)" />
  </defs>
  <sodipodi:namedview
     id="base"
     pagecolor="#ffffff"
     bordercolor="#666666"
     borderopacity="1.0"
     inkscape:pageopacity="0"
     inkscape:pageshadow="2"
     inkscape:zoom="0.98994949"
     inkscape:cx="85.290396"
     inkscape:cy="242.65264"
     inkscape:document-units="px"
     inkscape:current-layer="layer1"
     showgrid="true"
     units="px"
     inkscape:window-width="1920"
     inkscape:window-height="1017"
     inkscape:window-x="-8"
     inkscape:window-y="-8"
     inkscape:window-maximized="1">
    <inkscape:grid
       type="xygrid"
       id="grid4140" />
  </sodipodi:namedview>
  <metadata
     id="metadata7">
    <rdf:RDF>
      <cc:Work
         rdf:about="">
        <dc:format>image/svg+xml</dc:format>
        <dc:type
           rdf:resource="http://purl.org/dc/dcmitype/StillImage" />
        <dc:title />
      </cc:Work>
    </rdf:RDF>
  </metadata>
  <g
     inkscape:label="Ebene 1"
     inkscape:groupmode="layer"
     id="layer1"
     transform="translate(0,-552.36209)">
    <g
       inkscape:groupmode="layer"
       id="layer2"
       inkscape:label="bg">
      <rect
         style="opacity:1;fill:#ffffff;fill-opacity:1;fill-rule:evenodd;stroke:none;stroke-width:3;stroke-linecap:butt;stroke-linejoin:round;stroke-miterlimit:4;stroke-dasharray:none;stroke-dashoffset:0;stroke-opacity:1"
         id="rect4147"
         width="500"
         height="500"
         x="3.0994415e-006"
         y="552.36206" />
      <rect
         transform="translate(0,-4.1533073e-6)"
         style="fill:url(#linearGradient4149);fill-opacity:1;stroke:none"
         id="rect4166"
         width="500"
         height="500"
         x="0.011381085"
         y="552.3587"
         ry="0" />
    </g>
    <path
       style="opacity:1;fill:#4d4d4d;fill-opacity:1;stroke:#ffffff;stroke-width:2.99999964;stroke-linecap:butt;stroke-linejoin:round;stroke-miterlimit:4;stroke-dasharray:none;stroke-dashoffset:0;stroke-opacity:1"
       d="M 285.16016 64.099609 A 104.15432 104.15432 0 0 0 181.24609 163.4668 A 89.22435 89.22435 0 0 0 94.341797 93.958984 A 89.22435 89.22435 0 0 0 5.1171875 183.18359 A 89.22435 89.22435 0 0 0 47.619141 259.06641 C 24.019108 267.03246 7.1074219 289.27745 7.1074219 315.63281 L 7.1074219 435.07422 C 7.1074219 468.15897 33.743302 494.79297 66.828125 494.79297 L 305.70703 494.79297 C 338.79186 494.79297 365.42773 468.15897 365.42773 435.07422 L 365.42773 425.9043 C 397.17914 452.89341 430.84359 493.40252 458.80078 493.29492 C 487.949 492.27152 492.37791 469.2422 493.9375 432.63477 C 494.28527 396.05404 494.10093 359.44834 494.0332 322.86133 C 493.21922 286.21599 493.70979 256.67935 464.5918 254.71875 C 436.18608 254.37198 399.04447 288.70258 365.16992 310.17383 C 363.2305 288.5985 349.92153 270.40432 331.23633 261.59961 A 104.15432 104.15432 0 0 0 389.31445 168.25195 A 104.15432 104.15432 0 0 0 285.16016 64.099609 z M 285.35742 120.71484 A 46.071441 46.071441 0 0 1 331.42773 166.78516 A 46.071441 46.071441 0 0 1 285.35742 212.85742 A 46.071441 46.071441 0 0 1 239.28516 166.78516 A 46.071441 46.071441 0 0 1 285.35742 120.71484 z M 92.857422 147.85742 A 33.571434 33.571434 0 0 1 126.42773 181.42773 A 33.571434 33.571434 0 0 1 92.857422 215 A 33.571434 33.571434 0 0 1 59.285156 181.42773 A 33.571434 33.571434 0 0 1 92.857422 147.85742 z M 183.26172 189.25 A 104.15432 104.15432 0 0 0 229.11914 255.91406 L 145.83789 255.91406 A 89.22435 89.22435 0 0 0 183.26172 189.25 z "
       id="rect4155"
       transform="translate(0,552.36209)" />
    <text
       transform="translate(0,-4.1533073e-6)"
       xml:space="preserve"
       style="color:#000000;font-style:normal;font-variant:normal;font-weight:normal;font-stretch:normal;line-height:0%;font-family:Arial;-inkscape-font-specification:Arial;text-indent:0;text-align:center;text-decoration:none;text-decoration-line:none;text-decoration-style:solid;text-decoration-color:#000000;letter-spacing:-1.14210391px;word-spacing:0px;text-transform:none;writing-mode:lr-tb;direction:ltr;baseline-shift:baseline;text-anchor:middle;white-space:normal;clip-rule:nonzero;display:inline;overflow:visible;visibility:visible;opacity:1;isolation:auto;mix-blend-mode:normal;color-interpolation:sRGB;color-interpolation-filters:linearRGB;solid-color:#000000;solid-opacity:1;fill:#000000;fill-opacity:1;fill-rule:nonzero;stroke:none;stroke-width:2.5999999;stroke-linecap:butt;stroke-linejoin:miter;stroke-miterlimit:4;stroke-dasharray:none;stroke-dashoffset:0;stroke-opacity:1;color-rendering:auto;image-rendering:auto;shape-rendering:auto;text-rendering:auto;enable-background:accumulate"
       x="188.71974"
       y="989.11194"
       id="text4185"><tspan
         sodipodi:role="line"
         id="tspan4187"
         x="188.14868"
         y="989.11194"
         style="font-style:normal;font-variant:normal;font-weight:bold;font-stretch:normal;font-size:181.25376892px;font-family:Arial;-inkscape-font-specification:'Arial Bold';fill:#ffff00">IVR</tspan></text>
    <circle
       transform="translate(0,-4.1533073e-6)"
       style="opacity:1;fill:#000000;fill-opacity:1;fill-rule:evenodd;stroke:none;stroke-width:3.29999995;stroke-linecap:butt;stroke-linejoin:round;stroke-miterlimit:4;stroke-dasharray:none;stroke-dashoffset:0;stroke-opacity:1"
       id="path4141"
       cx="285.35718"
       cy="719.35693"
       r="44.512875" />
    <circle
       transform="translate(0,-4.1533073e-6)"
       style="opacity:1;fill:#000000;fill-opacity:1;fill-rule:evenodd;stroke:none;stroke-width:3.29999995;stroke-linecap:butt;stroke-linejoin:round;stroke-miterlimit:4;stroke-dasharray:none;stroke-dashoffset:0;stroke-opacity:1"
       id="path4158"
       cx="92.887787"
       cy="734.14783"
       r="32.321426" />
    <g
       transform="matrix(2.6378667,0,0,2.6378667,365.57412,-2088.8694)"
       id="layer1-8"
       inkscape:label="Ebene 1"
       style="fill:#800000">
      <path
         id="path4146"
         transform="translate(0,1002.3622)"
         d="M 24.984375,0.98242188 A 23.986835,23.986835 0 0 0 0.99609375,24.96875 23.986835,23.986835 0 0 0 24.984375,48.955078 23.986835,23.986835 0 0 0 48.970703,24.96875 23.986835,23.986835 0 0 0 24.984375,0.98242188 Z m 0.02539,3.24804692 A 20.803576,20.803576 0 0 1 45.8125,25.033203 20.803576,20.803576 0 0 1 25.009766,45.835938 20.803576,20.803576 0 0 1 4.2070312,25.033203 20.803576,20.803576 0 0 1 25.009766,4.2304688 Z m 0.02539,4.8164062 A 16.026789,16.026789 0 0 0 9.0078125,25.074219 16.026789,16.026789 0 0 0 25.035156,41.101562 16.026789,16.026789 0 0 0 41.060547,25.074219 16.026789,16.026789 0 0 0 25.035156,9.046875 Z"
         style="opacity:1;fill:#800000;fill-opacity:1;stroke:none;stroke-width:50;stroke-linecap:butt;stroke-linejoin:round;stroke-miterlimit:4;stroke-dasharray:none;stroke-dashoffset:0;stroke-opacity:1"
         inkscape:connector-curvature="0" />
    </g>
  </g>
</svg>
