<?xml version="1.0" encoding="UTF-8" standalone="no"?>
<!-- Created with Inkscape (http://www.inkscape.org/) -->

<svg
   xmlns:dc="http://purl.org/dc/elements/1.1/"
   xmlns:cc="http://creativecommons.org/ns#"
   xmlns:rdf="http://www.w3.org/1999/02/22-rdf-syntax-ns#"
   xmlns:svg="http://www.w3.org/2000/svg"
   xmlns="http://www.w3.org/2000/svg"
   xmlns:sodipodi="http://sodipodi.sourceforge.net/DTD/sodipodi-0.dtd"
   xmlns:inkscape="http://www.inkscape.org/namespaces/inkscape"
   width="50"
   height="50"
   viewBox="0 0 49.999997 49.999996"
   id="svg2"
   version="1.1"
   inkscape:version="0.92.3 (2405546, 2018-03-11)"
   sodipodi:docname="options.svg">
  <defs
     id="defs4" />
  <sodipodi:namedview
     id="base"
     pagecolor="#ffffff"
     bordercolor="#666666"
     borderopacity="1.0"
     inkscape:pageopacity="0.0"
     inkscape:pageshadow="2"
     inkscape:zoom="11.2"
     inkscape:cx="14.313646"
     inkscape:cy="24.912723"
     inkscape:document-units="px"
     inkscape:current-layer="layer1"
     showgrid="true"
     inkscape:snap-to-guides="true"
     inkscape:snap-grids="true"
     inkscape:window-width="1920"
     inkscape:window-height="1017"
     inkscape:window-x="-8"
     inkscape:window-y="-8"
     inkscape:window-maximized="1"
     units="px">
    <inkscape:grid
       type="xygrid"
       id="grid4147" />
  </sodipodi:namedview>
  <metadata
     id="metadata7">
    <rdf:RDF>
      <cc:Work
         rdf:about="">
        <dc:format>image/svg+xml</dc:format>
        <dc:type
           rdf:resource="http://purl.org/dc/dcmitype/StillImage" />
        <dc:title></dc:title>
      </cc:Work>
    </rdf:RDF>
  </metadata>
  <g
     inkscape:groupmode="layer"
     id="layer2"
     inkscape:label="Ebene 2" />
  <g
     inkscape:label="Ebene 1"
     inkscape:groupmode="layer"
     id="layer1"
     transform="translate(0,-1002.3622)">
    <path
       style="opacity:1;fill:#4d4d4d;fill-opacity:1;stroke:none;stroke-width:50;stroke-linecap:butt;stroke-linejoin:round;stroke-miterlimit:4;stroke-dasharray:none;stroke-dashoffset:0;stroke-opacity:1"
       d="m 22.55548,1003.3851 c -0.839246,0 -1.407531,0.6836 -1.51582,1.5157 l -0.762761,5.8661 a 17.360619,17.360619 0 0 0 -3.648961,1.4577 l -4.641193,-3.5649 c -0.665657,-0.5094 -1.553615,-0.5786 -2.1428355,0.02 l -3.4841273,3.5326 c -0.5892127,0.5977 -0.5004725,1.4781 0.016168,2.1394 l 3.5067505,4.4894 a 17.360619,17.360619 0 0 0 -1.6547988,3.8752 l -5.6011054,0.6142 c -0.8342336,0.091 -1.5233003,0.6539 -1.5352148,1.4931 l -0.071103,4.9612 c -0.011749,0.8392 0.6626096,1.4194 1.4931961,1.5384 l 5.7013005,0.8241 a 17.360619,17.360619 0 0 0 1.6612614,3.969 l -3.4000948,4.2825 c -0.521806,0.6575 -0.6074154,1.5442 -0.01939,2.1428 l 3.4776635,3.5392 c 0.5880206,0.5998 1.4699576,0.5247 2.1396016,0.02 l 4.515145,-3.41 a 17.360619,17.360619 0 0 0 3.79117,1.5354 l 0.743367,5.6171 c 0.110127,0.8323 0.689543,1.503 1.52875,1.503 l 4.961164,-0.042 c 0.83932,0 1.40157,-0.6891 1.502893,-1.5222 l 0.688422,-5.6561 a 17.360619,17.360619 0 0 0 3.67805,-1.5579 l 4.395559,3.5199 c 0.655208,0.5252 1.541715,0.6107 2.142836,0.027 l 3.555231,-3.4615 c 0.601125,-0.5859 0.532256,-1.4713 0.02909,-2.1428 l -3.497056,-4.6671 a 17.360619,17.360619 0 0 0 1.548142,-3.7686 l 5.649588,-0.6626 c 0.833543,-0.098 1.519726,-0.6636 1.525518,-1.5029 l 0.03232,-4.9644 c 0.0058,-0.8391 -0.671455,-1.408 -1.502894,-1.5222 l -5.788563,-0.7952 a 17.360619,17.360619 0 0 0 -1.493199,-3.5843 l 3.749153,-4.806 c 0.516259,-0.6618 0.593046,-1.5489 0,-2.1428 l -3.50675,-3.5101 c -0.593045,-0.5938 -1.477461,-0.5112 -2.142834,0 l -4.85774,3.7331 a 17.360619,17.360619 0 0 0 -3.555234,-1.4899 l -0.733669,-5.9147 c -0.103375,-0.8328 -0.676574,-1.5159 -1.515823,-1.5159 h -4.961165 v -0.017 z m 2.537143,17.0261 a 6.9475866,6.9475866 0 0 1 6.94563,6.949 6.9475866,6.9475866 0 0 1 -6.94563,6.9489 6.9475866,6.9475866 0 0 1 -6.948862,-6.9489 6.9475866,6.9475866 0 0 1 6.948862,-6.949 z"
       id="rect4136"
       inkscape:connector-curvature="0" />
  </g>
</svg>
